{"title":"[PainSubs] Guilty Crown 16 [368p].mkv","uid":7020580,"size":189676657,"categoryP":"video","categoryS":"tv_shows","magnet":"?xt=urn:btih:6a4653fbae006db07d37299ce2561a854e50558d&amp;dn=%5BPainSubs%5D+Guilty+Crown+16+%5B368p%5D.mkv&amp;tr=udp%3A%2F%2Ftracker.openbittorrent.com%3A80&amp;tr=udp%3A%2F%2Fopen.demonii.com%3A1337&amp;tr=udp%3A%2F%2Ftracker.coppersurfer.tk%3A6969&amp;tr=udp%3A%2F%2Fexodus.desync.com%3A6969","seeders":0,"leechers":1,"uploader":"k1ng_ruLz","files":1,"time":1328823094,"description":"Guilty crown - episode 16 &quot;Kingdom:The Tyrant&quot;\n\n\n\nOn Christmas Eve, 2029, the unidentified &quot;Apocalypse Virus&quot; spreads and plunges Japan into a state of emergency in a chaos known as the &quot;Lost Christmas&quot; incident.[2] An international organization known as the GHQ intervenes with martial law and restores order to Japan at the cost of its independence.[2]\nTen years later in 2039, Shu Ouma, a 17-year-old high school student who keeps to himself in school, meets Inori Yuzuriha, the lead singer for Egoist, while visiting one of his favorite places on his way home from school. Shu is a big fan of Inori, a singer who has taken the Internet world by storm. However, he also discovers the other side of her, which is that she is a member of &quot;Undertakers&quot;, a resistance group that aims to liberate Japan from the GHQ. Shu starts taking part in the actions of &quot;Undertaker&quot; and the &quot;king's mark&quot; appears on his right hand after the Void Genome in his pocket was shot by a GHQ Endlave. This &quot;mark&quot; bestows on him the power to reach inside another person's body and extract and materialize a weapon from it.[2] The anime tells the story of Shu's reluctant involvement with the Undertakers and his acceptance of his power.\n\n\n\n\nRelease date      : February 10, 2012\n\nAudio language    : Japanese\n\nSubTitle language : English\n\n\nGeneral\n\n\nComplete name                            : [PainSubs] Guilty Crown 16 [368p].mkv.bc!\nFormat                                   : Matroska\nFormat version                           : Version 2\nFile size                                : 181 MiB\nDuration                                 : 23mn 10s\nOverall bit rate                         : 1 091 Kbps\n\n\nVideo\n\n\nFormat                                   : VP6\nFormat profile                           : Heightened Sharpness\nCodec ID                                 : VP6F\nCodec ID/Hint                            : On2\nDuration                                 : 23mn 10s\nBit rate                                 : 942 Kbps\nWidth                                    : 640 pixels\nHeight                                   : 368 pixels\nDisplay aspect ratio                     : 16:9\nFrame rate                               : 23.443 fps\nBits/(Pixel*Frame)                       : 0.171\nStream size                              : 156 MiB (86%)\nDefault                                  : Yes\nForced                                   : No\n\n\nAudio\n\n\nFormat                                   : MPEG Audio\nFormat version                           : Version 1\nFormat profile                           : Layer 3\nCodec ID                                 : A_MPEG/L3\nCodec ID/Hint                            : MP3\nDuration                                 : 23mn 10s\nBit rate mode                            : Constant\nBit rate                                 : 128 Kbps\nChannel(s)                               : 2 channels\nSampling rate                            : 44.1 KHz\nCompression mode                         : Lossy\nStream size                              : 21.2 MiB (12%)\nLanguage                                 : Japanese\nDefault                                  : Yes\nForced                                   : No","torrent":{"xt":"urn:btih:6a4653fbae006db07d37299ce2561a854e50558d","amp;dn":"%5BPainSubs%5D+Guilty+Crown+16+%5B368p%5D.mkv","amp;tr":["udp%3A%2F%2Ftracker.openbittorrent.com%3A80","udp%3A%2F%2Fopen.demonii.com%3A1337","udp%3A%2F%2Ftracker.coppersurfer.tk%3A6969","udp%3A%2F%2Fexodus.desync.com%3A6969"],"infoHash":"6a4653fbae006db07d37299ce2561a854e50558d","infoHashBuffer":{"type":"Buffer","data":[106,70,83,251,174,0,109,176,125,55,41,156,226,86,26,133,78,80,85,141]},"announce":[],"urlList":[]}}